<svg width="26" height="27" viewBox="0 0 26 27" fill="none" xmlns="http://www.w3.org/2000/svg">
<g id="Group">
<g id="Group 239805">
<path id="Vector" d="M0.0875857 9.93115H25.911C25.911 10.0693 25.9283 10.1816 25.9283 10.2939C25.9283 14.5085 25.9283 18.7232 25.9283 22.9292C25.9283 24.6306 24.961 25.9348 23.3891 26.3666C23.0437 26.4616 22.6809 26.4961 22.3268 26.4961C16.1171 26.4961 9.90739 26.5048 3.69768 26.4961C1.52126 26.4961 0.0703125 25.0452 0.0703125 22.8688C0.0703125 18.6714 0.0703125 14.474 0.0703125 10.2766C0.0703125 10.173 0.0789491 10.078 0.0875857 9.93115ZM21.4459 18.1877C21.4373 17.5227 20.8586 16.9613 20.1936 16.9613C19.5199 16.9613 18.9585 17.5314 18.9585 18.1964C18.9585 18.8873 19.5372 19.4573 20.2281 19.44C20.9018 19.4228 21.4545 18.8528 21.4459 18.1877ZM20.1849 15.044C20.85 15.044 21.4286 14.4999 21.4459 13.8349C21.4632 13.1785 20.9018 12.5912 20.2368 12.574C19.5545 12.5567 18.9585 13.1267 18.9585 13.809C18.9585 14.4826 19.5113 15.0354 20.1849 15.044ZM5.83092 23.8447C6.50458 23.8361 7.06595 23.2661 7.04868 22.601C7.04005 21.9187 6.4873 21.366 5.81365 21.366C5.13999 21.366 4.53543 21.9706 4.56134 22.6356C4.58725 23.3179 5.15727 23.8533 5.82229 23.8447H5.83092ZM10.607 12.5653C9.9333 12.5653 9.37193 13.1181 9.37193 13.8003C9.37193 14.4999 9.9333 15.0613 10.6242 15.044C11.2979 15.0354 11.8506 14.4567 11.842 13.7917C11.8247 13.1094 11.272 12.5653 10.607 12.5653ZM7.04868 18.2309C7.04868 17.5486 6.51321 16.9873 5.8482 16.9613C5.1659 16.9441 4.56998 17.5227 4.56998 18.1964C4.56998 18.8787 5.12272 19.4314 5.79638 19.44C6.47867 19.44 7.04005 18.9046 7.04868 18.2309ZM11.8506 18.2136C11.8506 17.54 11.2893 16.97 10.6242 16.97C9.9333 16.97 9.37193 17.5314 9.38056 18.2309C9.38056 18.9132 9.94194 19.4573 10.6242 19.4487C11.2979 19.4487 11.8679 18.8787 11.8593 18.2136H11.8506ZM9.37193 22.5838C9.36329 23.2574 9.89876 23.8274 10.5724 23.8447C11.2461 23.862 11.8247 23.3179 11.842 22.6442C11.8593 21.9619 11.2893 21.3574 10.6156 21.3574C9.94194 21.3574 9.38056 21.9101 9.37193 22.5838ZM16.6353 22.6269C16.6353 21.9447 16.1085 21.3833 15.4348 21.366C14.7525 21.3487 14.1652 21.9187 14.1739 22.6097C14.1739 23.292 14.718 23.8447 15.4003 23.8447C16.0739 23.8447 16.6353 23.3006 16.6439 22.6269H16.6353ZM16.6353 13.8003C16.6353 13.1267 16.0739 12.5653 15.4003 12.5653C14.7266 12.5653 14.1739 13.1181 14.1652 13.7917C14.1652 14.4654 14.7007 15.0267 15.383 15.0354C16.0826 15.044 16.6353 14.4913 16.6353 13.7917V13.8003ZM16.6353 18.2136C16.6353 17.54 16.0826 16.97 15.4175 16.9613C14.7266 16.9613 14.1739 17.5227 14.1739 18.2223C14.1739 18.8959 14.7266 19.4487 15.4089 19.44C16.0912 19.44 16.6267 18.8959 16.6353 18.205V18.2136Z" fill="#004D7F"/>
<path id="Vector_2" d="M20.4699 2.16693C21.4632 2.21875 22.4218 2.15829 23.3287 2.35694C24.8055 2.67649 25.7037 3.72152 25.8678 5.21565C25.9887 6.27795 25.8937 7.35753 25.8937 8.46301H0.0703125C0.0703125 8.178 0.0703125 7.90163 0.0703125 7.61662C0.0703125 6.99479 0.0703125 6.38159 0.0703125 5.75975C0.104859 3.71288 1.52126 2.27057 3.56813 2.21011C4.11224 2.19284 4.66498 2.22739 5.20909 2.21011C5.51137 2.20148 5.57182 2.33103 5.56319 2.59876C5.55455 3.2206 5.53728 3.83379 5.56319 4.45563C5.60637 5.47475 6.37503 6.21749 7.35096 6.25204C8.30962 6.28659 9.11283 5.6043 9.23374 4.60245C9.2942 4.09289 9.25965 3.56606 9.26829 3.0565C9.26829 2.7974 9.26829 2.54694 9.26829 2.26193H16.7562C16.7562 2.52967 16.7562 2.78877 16.7562 3.03923C16.7562 3.54015 16.7303 4.04971 16.7649 4.55063C16.8426 5.55248 17.6631 6.27795 18.639 6.26068C19.589 6.25204 20.3836 5.50929 20.4527 4.52472C20.4872 3.95471 20.4699 3.37605 20.4699 2.7974C20.4699 2.62467 20.4699 2.46058 20.4699 2.1842V2.16693Z" fill="#004D7F"/>
<path id="Vector_3" d="M17.6659 2.90962C17.6659 2.45188 17.6659 1.99414 17.6659 1.5364C17.6659 0.931842 18.0459 0.525922 18.59 0.508648C19.1341 0.491375 19.5487 0.897295 19.5573 1.49322C19.5659 2.45188 19.5659 3.41054 19.5573 4.37784C19.5573 4.92195 19.16 5.30196 18.6332 5.3106C18.0977 5.3106 17.7091 4.96513 17.6659 4.42103C17.6486 4.16193 17.6659 3.90283 17.6659 3.64373C17.6659 3.40191 17.6659 3.16008 17.6659 2.90962Z" fill="#004D7F"/>
<path id="Vector_4" d="M8.35441 2.89234C8.35441 3.36735 8.35441 3.84236 8.35441 4.30874C8.34578 4.89603 7.98304 5.28467 7.43893 5.29331C6.86892 5.31058 6.47163 4.93057 6.45436 4.32601C6.43709 3.36735 6.43709 2.40005 6.45436 1.44139C6.47163 0.897283 6.88619 0.5 7.42166 0.5C7.94849 0.5 8.33714 0.90592 8.34578 1.47594C8.35441 1.95095 8.34578 2.42596 8.34578 2.89234H8.35441Z" fill="#004D7F"/>
</g>
</g>
</svg>
