<svg width="144" height="106" viewBox="0 0 144 106" fill="none" xmlns="http://www.w3.org/2000/svg">
<g id="Logo-color">
<g id="Group">
<g id="Group_2">
<g id="Group_3">
<path id="Vector" d="M31.556 55.029C32.2907 55.8612 33.0108 56.7349 33.7081 57.5805C34.0087 57.9465 34.3106 58.3112 34.6125 58.6746C34.8716 58.9845 35.1268 59.2971 35.3833 59.6097C35.9831 60.3418 36.6217 61.0845 37.2522 61.8166C39.2747 64.1651 41.2157 64.3294 43.0165 64.3294C43.281 64.3294 43.5455 64.332 43.8114 64.332C47.3207 64.332 50.9931 64.1985 54.7255 63.9353C57.0206 63.7736 59.3584 63.6467 61.6187 63.5252C62.2666 63.4904 65.5755 63.3088 65.5755 63.3088C69.8263 63.0763 74.2214 62.8372 78.5376 62.4444C79.5235 62.3549 80.9649 61.4332 81.3136 60.5328C81.5981 59.7994 81.876 59.1408 81.7972 58.5316C81.5447 56.5839 81.176 55.8919 78.9504 55.4551C78.4975 55.3669 78.038 55.3215 77.5851 55.3215C76.3615 55.3215 74.5553 56.0242 73.3237 56.4664C70.7761 57.3801 68.1538 58.3313 64.8969 58.3313C63.7441 58.3313 62.4937 58.2524 60.9587 58.0828C60.0837 57.9866 59.1927 57.9024 58.3324 57.8223C56.9404 57.6927 55.5003 57.5578 54.0977 57.3641C51.3658 56.986 48.1369 56.4731 44.9108 55.5353C43.5482 55.1385 42.3993 54.3437 41.4949 53.1721C40.2432 51.5517 39.3148 49.7496 38.4959 48.0436C36.5749 44.036 35.0039 39.7959 33.485 35.6961L33.0562 34.5406C32.5405 33.1526 32.8277 31.8314 33.9111 30.6144C35.2711 29.0861 36.3772 28.4329 37.6102 28.4329C38.4291 28.4329 39.3722 28.7121 40.5799 29.3119C41.3894 29.714 41.9451 29.885 42.4394 29.885C43.4453 29.885 43.7232 29.9785 44.319 28.8684C44.3457 28.8203 44.6035 28.3728 44.6556 27.8652C44.7024 27.4096 44.8333 27.3108 44.9068 27.1518C45.349 26.584 46.5847 26.2487 46.8251 24.8835C46.8946 24.488 47.3127 24.2609 47.5545 24.1608C48.2518 23.8722 48.5631 23.3125 48.4816 22.4949C48.4656 22.3373 48.4536 22.1796 48.4402 22.022C48.4215 21.7936 48.4028 21.5585 48.3747 21.3233C48.2171 20.0102 48.2732 19.0016 49.0387 18.0331C49.8135 17.0525 50.1702 15.7781 50.0686 14.346C49.9618 12.8298 50.3652 11.9227 51.4152 11.3109C51.8908 11.0344 52.1499 10.0512 51.4286 8.66052C50.599 7.06414 49.2885 5.89124 48.1249 4.91604C44.9389 2.24829 41.9344 1.00592 38.6696 1.00592L38.5146 1.00725C35.4047 1.046 32.9881 2.53951 31.3342 5.44906C29.7472 8.23972 29.0192 11.1773 29.1073 14.4302C29.1207 14.9432 29.126 15.4682 29.13 15.9745C29.1407 17.2997 29.1527 18.6689 29.3344 20.0182C29.5562 21.6653 28.8936 22.8837 27.1823 23.9657C25.789 24.8474 24.3489 25.7598 22.8434 26.4798C17.1084 29.2224 12.7641 33.906 9.5607 40.7951C7.24295 45.7793 4.69275 51.6091 3.76298 57.7288C3.4624 59.7099 3.12843 63.6735 2.7437 69.8399C1.71774 70.274 0.781288 70.8712 0.0078125 71.5845C0.164111 66.933 0.453997 63.4717 0.89083 61.0257C1.77919 56.0416 3.12042 51.2818 4.8771 46.8787C7.65573 39.9121 10.8712 34.6915 14.9951 30.4474C17.6722 27.6928 20.7714 25.3644 24.2046 23.5262C24.6628 23.2804 25.1317 22.9785 25.7249 22.5457C26.8991 21.6894 27.4027 20.5712 27.3119 19.0256C27.0955 15.3479 26.8497 11.18 28.2497 7.23647C29.643 3.31299 33.7522 0.209733 37.8092 0.0173664C38.047 0.00534351 38.2875 0 38.5226 0C42.5944 0 46.256 1.66184 50.0446 5.22998C51.2095 6.32674 52.4118 7.52101 53.1946 8.99983C53.9574 10.4399 53.7116 11.4311 52.3997 12.214C51.5755 12.7056 51.2335 13.3895 51.3257 14.3647C51.4473 15.6552 51.0692 16.8695 50.1702 18.0785C49.724 18.6796 49.5744 19.3222 49.7146 20.0436C49.9417 21.2044 50.0513 22.4735 50.062 24.0392C50.0646 24.4974 49.9725 24.8233 49.7854 25.0117C49.6331 25.1653 49.4047 25.2388 49.0868 25.2388C49.0307 25.2388 48.9719 25.2361 48.9118 25.2321C48.8062 25.2241 48.7074 25.2201 48.6139 25.2201C48.1463 25.2201 47.8043 25.3363 47.5679 25.5741C47.3167 25.8266 47.2032 26.19 47.2085 26.7136C47.2098 26.9153 47.1016 27.2092 46.8745 27.2667C45.2528 27.6795 45.6389 28.2298 45.3583 28.9739C45.2314 29.3106 45.0177 29.5844 44.9041 29.7514C44.1654 30.8375 43.3852 31.3398 42.2938 31.3398C41.9986 31.3398 41.6713 31.3024 41.3226 31.2276C40.9125 31.1394 40.4944 31.0325 40.0896 30.9297C39.594 30.8028 39.0823 30.6718 38.5667 30.5716C38.2127 30.5022 37.872 30.4675 37.5554 30.4675C36.6029 30.4675 35.8348 30.7827 35.3365 31.3799C34.7594 32.0705 34.5737 33.0951 34.7982 34.3428C35.1976 36.5524 35.9804 38.7419 37.1934 41.0369C37.486 41.5913 37.7772 42.1457 38.0684 42.7015C39.5486 45.5255 41.0795 48.4471 42.8402 51.191C43.7312 52.5803 44.9429 53.4206 46.6528 53.8374C50.77 54.8393 55.1583 55.4818 60.4631 55.8585C61.1244 55.9053 61.9353 56.0189 62.5818 56.0376C63.5878 56.0669 64.0607 56.1431 64.9985 56.1431C65.2255 56.1431 65.9536 56.1845 66.1941 56.1845C66.9408 56.1845 67.6675 56.0376 68.3422 55.8799C68.942 55.7383 69.5444 55.6007 70.1456 55.4631C71.0166 55.2627 71.9156 55.057 72.8 54.8433C73.2595 54.7324 73.6843 54.6015 73.8273 54.2274C73.9716 53.848 73.7391 53.4633 73.4452 53.0372C72.7933 52.094 70.8042 49.1872 70.2324 48.224C70.2084 48.1839 70.2164 48.1291 70.2551 48.0597C70.3446 47.902 70.5744 47.7417 70.8363 47.7417C70.9872 47.7417 71.1301 47.7965 71.2584 47.9047L72.0345 49.0843C72.5034 49.7669 73.0044 50.4309 73.488 51.0707C73.9475 51.6786 74.7076 52.937 75.242 53.4914C75.4504 53.7078 75.8378 53.844 76.4229 53.8721C78.3773 53.9643 80.1193 54.4465 80.333 54.5307C82.0349 55.2053 83.4817 57.1477 82.6788 59.5416C82.6254 59.6992 82.5586 59.8555 82.4878 60.0198C82.4036 60.2162 82.3168 60.4192 82.2487 60.6357C82.1057 61.0912 81.9869 61.5654 82.2407 61.9114C82.4624 62.2133 82.8445 62.2521 83.1531 62.2521C83.2439 62.2521 83.3428 62.2481 83.4523 62.2414C85.4748 62.1065 87.2569 61.9542 88.9 61.7738L88.9789 61.7645C89.4451 61.7137 89.8138 61.6723 90.0689 61.6723C90.5084 61.6723 90.5164 61.6723 90.5258 63.111C90.5285 63.6307 90.5285 64.5899 90.5285 64.5899C90.5285 64.5899 91.489 64.6126 91.9926 64.6126C95.86 64.6032 99.7193 64.6019 103.58 64.6019L115.69 64.6046L130.132 64.6139V66.7126H28.4955L28.6104 65.9364C28.8001 64.6593 28.9737 63.5065 29.1127 62.1011C29.1755 61.4692 29.3117 60.5114 29.3972 59.9584C29.655 58.2738 29.8193 57.4536 30.0705 55.6755L30.4606 53.7853L31.556 55.029ZM31.7884 58.2391L31.4157 59.6538C31.4157 59.6538 31.19 61.4011 31.0003 62.3082C30.9361 62.6168 30.9335 62.9454 30.8734 63.2553C30.7852 63.7189 30.6289 64.6486 30.6289 64.6486C30.6289 64.6486 31.4972 64.5872 31.9501 64.5899C32.7783 64.5939 33.6052 64.5952 34.4321 64.5952L37.3604 64.5939C37.5274 64.5939 38.4598 64.6099 38.4598 64.6099C38.4598 64.6099 37.7571 64.0021 37.6342 63.8899C36.0071 62.4057 32.9266 59.2824 32.9266 59.2824L31.7884 58.2391ZM88.4632 64.1998C88.4993 64.1998 88.5367 64.2011 88.5727 64.2025C88.6182 64.2038 88.7638 64.2025 88.8105 64.2025C88.9989 64.2025 89.1378 64.1811 89.3142 63.9954C89.4504 63.8525 89.5132 63.6481 89.4998 63.3862C89.4678 62.7477 89.0243 62.6983 88.888 62.6983C88.7731 62.6983 88.6422 62.7156 88.5447 62.721C88.4565 62.7263 88.1586 62.7584 88.1292 62.761C86.2563 62.9347 84.6666 63.1311 82.8271 63.3114L81.2227 63.4677C81.1279 63.4771 81.0424 63.5265 80.9863 63.604C80.9315 63.6815 80.9115 63.779 80.9328 63.8712L80.9515 63.9486C80.9863 64.0983 81.1199 64.2038 81.2722 64.2038L84.6653 64.2051C85.9304 64.2051 87.1955 64.2038 88.4592 64.1998H88.4632Z" fill="#004E80"/>
</g>
</g>
<g id="Group_4">
<path id="Vector_2" d="M129.991 38.6885C122.335 38.7673 116.13 45.0206 116.13 52.6952C116.13 60.4193 122.414 66.7032 130.138 66.7032C137.862 66.6218 144.079 60.2737 143.998 52.5496C143.918 44.8749 137.647 38.6871 129.991 38.6885ZM129.837 42.2099V47.5494L125.657 50.5872L121.118 49.0709L121.288 44.8415L125.931 41.2948L129.837 42.2099ZM134.077 41.252L138.758 44.7494L138.972 48.9774L134.449 50.5404L130.237 47.5467L130.181 42.2072L134.077 41.252ZM125.726 40.6736L125.592 40.8513L120.776 44.5917L120.057 44.8055C121.515 42.9486 123.472 41.5032 125.726 40.6736ZM139.987 44.7013L139.266 44.4956L134.411 40.8058L134.276 40.6295C136.538 41.4337 138.511 42.8591 139.987 44.7013ZM120.18 60.7399C118.4 58.5397 117.331 55.741 117.331 52.6965C117.331 52.5897 117.332 52.4815 117.335 52.3746L117.705 52.8208L120.055 59.9878L120.18 60.7399ZM140.148 59.8836L142.423 52.6925L142.789 52.2423C142.793 52.3492 142.795 52.4561 142.797 52.5643C142.829 55.6088 141.789 58.4181 140.031 60.637L140.148 59.8836ZM120.55 59.5683L118.355 52.8755L120.94 49.644L125.488 51.1629L127.075 56.0469L124.112 60.474L120.55 59.5683ZM136.099 60.4112L133.089 56.0162L134.624 51.1162L139.155 49.5492L141.773 52.7526L139.649 59.4681L136.099 60.4112ZM130.126 64.4202L127.307 64.4469L124.642 60.7612L127.56 56.4023H130.084L132.609 56.3755L135.572 60.7038L132.946 64.4176L130.126 64.4202Z" fill="#004E80"/>
</g>
</g>
<g id="Group_5">
<g id="Group_6">
<g id="Group_7">
<path id="Vector_3" d="M1.63245 76.0771C2.71985 74.7305 5.10975 74.0572 8.79945 74.0572L14.5317 74.0345V76.8412H8.47483C6.89582 76.8719 5.73628 77.1778 4.99753 77.7616C4.25745 78.3454 3.84734 79.3553 3.76318 80.7927L14.5317 80.77V83.554H3.76451V90.1546H0V82.7458C0 79.6479 0.54504 77.425 1.63245 76.0771Z" fill="#004E80"/>
<path id="Vector_4" d="M17.8727 78.5244C18.3041 77.3422 18.94 76.3803 19.779 75.6389C20.6179 74.8975 21.7187 74.3698 23.0813 74.0559C23.5795 73.9517 24.0952 73.8689 24.6269 73.8088C25.1586 73.7486 25.6902 73.7193 26.2219 73.7193C26.787 73.7046 27.3601 73.7273 27.9412 73.786C28.5223 73.8462 29.0794 73.9437 29.611 74.0786C30.9402 74.3778 32.029 74.9015 32.8759 75.6496C33.7229 76.3977 34.3467 77.3635 34.7462 78.5458C34.9118 79.0842 35.0414 79.6532 35.1322 80.2517C35.2231 80.8502 35.2685 81.4487 35.2685 82.0471C35.2685 82.691 35.2271 83.3189 35.1443 83.9334C35.0614 84.5466 34.9279 85.1304 34.7462 85.6847C34.3467 86.8964 33.7162 87.8743 32.8519 88.6143C31.9876 89.3557 30.8735 89.8674 29.5122 90.1519C28.9805 90.2722 28.4315 90.3577 27.8677 90.4098C27.3026 90.4619 26.7296 90.4886 26.1471 90.4886C25.6315 90.4886 25.1171 90.4578 24.6015 90.3991C24.0858 90.3389 23.5795 90.2561 23.0813 90.1519C21.7347 89.8674 20.6299 89.3544 19.7656 88.6143C18.9013 87.8729 18.2694 86.8964 17.8713 85.6847C17.7043 85.1611 17.5761 84.592 17.4853 83.9788C17.3931 83.3657 17.3477 82.7445 17.3477 82.1153C17.3477 81.4861 17.3891 80.8622 17.4719 80.241C17.5547 79.6198 17.6883 79.0548 17.8713 78.5458V78.5244H17.8727ZM21.7614 79.6693C21.6452 80.0727 21.5624 80.4815 21.5116 80.8929C21.4622 81.3044 21.4368 81.7132 21.4368 82.1166C21.4368 82.5361 21.4662 82.9515 21.5236 83.363C21.5811 83.7744 21.6599 84.1752 21.7601 84.5639C21.9431 85.2533 22.2463 85.8517 22.6698 86.3594C23.0933 86.8683 23.6877 87.2424 24.4519 87.4815C24.7337 87.571 25.033 87.6391 25.3496 87.6832C25.6649 87.7286 25.9815 87.75 26.2967 87.75C26.612 87.75 26.9286 87.7273 27.2439 87.6832C27.5591 87.6378 27.8584 87.571 28.1416 87.4815C28.9057 87.2424 29.5042 86.8683 29.9357 86.3594C30.3672 85.8504 30.6664 85.2519 30.8334 84.5639C30.9336 84.1752 31.0124 83.7744 31.0698 83.363C31.1273 82.9515 31.1567 82.5361 31.1567 82.1166C31.1567 81.7132 31.1273 81.3044 31.0698 80.8929C31.0111 80.4815 30.9322 80.0807 30.8334 79.692C30.6677 79.004 30.3685 78.4015 29.9357 77.8845C29.5028 77.3689 28.9057 76.9975 28.1416 76.7731C27.8584 76.6836 27.5605 76.6154 27.2439 76.5714C26.9273 76.5259 26.612 76.5046 26.2967 76.5046C25.9815 76.5046 25.6649 76.5273 25.3496 76.5714C25.0343 76.6168 24.7351 76.6836 24.4519 76.7731C23.6877 77.0122 23.0973 77.3876 22.6818 77.8952C22.2664 78.4042 21.9591 79.0027 21.7601 79.6906V79.6693H21.7614Z" fill="#004E80"/>
<path id="Vector_5" d="M38.636 78.5244C39.0675 77.3422 39.7033 76.3803 40.5423 75.6389C41.3812 74.8975 42.482 74.3698 43.8459 74.0559C44.3442 73.9517 44.8598 73.8689 45.3915 73.8088C45.9232 73.7486 46.4549 73.7193 46.9866 73.7193C47.5516 73.7046 48.1247 73.7273 48.7058 73.7861C49.287 73.8462 49.844 73.9437 50.3757 74.0786C51.7049 74.3778 52.7936 74.9015 53.6406 75.6496C54.4875 76.3977 55.1114 77.3635 55.5095 78.5458C55.6751 79.0842 55.8047 79.6532 55.8956 80.2517C55.9864 80.8502 56.0332 81.4487 56.0332 82.0471C56.0332 82.691 55.9917 83.3189 55.9089 83.9334C55.8261 84.5466 55.6925 85.1304 55.5095 85.6847C55.1114 86.8964 54.4795 87.8743 53.6152 88.6143C52.7509 89.3558 51.6381 89.8674 50.2755 90.1519C49.7438 90.2722 49.1948 90.3577 48.631 90.4098C48.066 90.4619 47.4929 90.4886 46.9118 90.4886C46.3961 90.4886 45.8818 90.4579 45.3661 90.3991C44.8505 90.339 44.3442 90.2561 43.8459 90.1519C42.4993 89.8674 41.3946 89.3544 40.5303 88.6143C39.6659 87.8729 39.0341 86.8964 38.636 85.6847C38.4703 85.1611 38.3407 84.592 38.2499 83.9788C38.1577 83.3657 38.1123 82.7445 38.1123 82.1153C38.1123 81.4861 38.1537 80.8622 38.2365 80.241C38.3194 79.6198 38.453 79.0548 38.6346 78.5458V78.5244H38.636ZM42.5247 79.6693C42.4085 80.0727 42.3257 80.4815 42.2749 80.8929C42.2255 81.3044 42.2001 81.7132 42.2001 82.1166C42.2001 82.5361 42.2295 82.9515 42.2869 83.363C42.3457 83.7744 42.4245 84.1752 42.5234 84.5639C42.7064 85.2533 43.0096 85.8517 43.4331 86.3594C43.8566 86.8683 44.4511 87.2424 45.2152 87.4815C45.4971 87.571 45.7963 87.6391 46.1129 87.6832C46.4282 87.7286 46.7448 87.75 47.06 87.75C47.3753 87.75 47.6919 87.7273 48.0072 87.6832C48.3224 87.6378 48.6217 87.571 48.9049 87.4815C49.669 87.2424 50.2675 86.8683 50.699 86.3594C51.1305 85.8504 51.4297 85.2519 51.5967 84.5639C51.6969 84.1752 51.7744 83.7744 51.8331 83.363C51.8919 82.9515 51.92 82.5361 51.92 82.1166C51.92 81.7132 51.8906 81.3044 51.8331 80.8929C51.7744 80.4815 51.6955 80.0807 51.5967 79.692C51.4297 79.004 51.1318 78.4015 50.699 77.8845C50.2675 77.3689 49.669 76.9975 48.9049 76.7731C48.6217 76.6836 48.3224 76.6154 48.0072 76.5714C47.6919 76.5259 47.3753 76.5046 47.06 76.5046C46.7434 76.5046 46.4282 76.5273 46.1129 76.5714C45.7976 76.6168 45.4984 76.6836 45.2152 76.7731C44.4511 77.0122 43.8606 77.3876 43.4451 77.8952C43.0297 78.4042 42.7224 79.0027 42.5234 79.6907V79.6693H42.5247Z" fill="#004E80"/>
<path id="Vector_6" d="M58.2031 76.8639V74.0572H73.6579V76.8639H67.8509V90.1546H63.9621V76.8639H58.2031Z" fill="#004E80"/>
<path id="Vector_7" d="M76.9727 90.1533V74.0345H86.1702C86.3198 74.0492 86.4694 74.0572 86.6191 74.0572C86.7687 74.0572 86.9183 74.0652 87.0679 74.0799C88.2983 74.124 89.4485 74.3351 90.5198 74.7091C91.5912 75.0832 92.2939 75.9061 92.6265 77.1792C92.9084 78.332 92.8296 79.3006 92.3901 80.0861C91.9492 80.8716 91.1891 81.5489 90.1097 82.1179C91.3053 82.6269 92.1042 83.2855 92.5023 84.0937C92.9004 84.9019 92.9592 85.9052 92.6773 87.1021C92.378 88.3298 91.7007 89.142 90.6454 89.5374C89.5901 89.9342 88.4639 90.1399 87.2683 90.1546C87.1841 90.1546 87.1067 90.1546 87.0318 90.1546C86.957 90.1546 86.8862 90.1546 86.8194 90.1546H76.9727V90.1533ZM80.7372 80.6578H86.2463C86.961 80.6725 87.5515 80.5496 88.0164 80.2878C88.4813 80.0259 88.7137 79.5357 88.7137 78.817C88.7298 78.1143 88.4973 77.6267 88.0164 77.3582C87.5341 77.0883 86.945 76.9548 86.2463 76.9548L80.7372 76.9307V80.6578ZM88.0778 86.9324C88.5347 86.6559 88.7631 86.1576 88.7631 85.4389C88.7631 84.7055 88.5347 84.2046 88.0778 83.9347C87.621 83.6649 87.0265 83.5313 86.2958 83.5313L80.7372 83.5086V87.3025H86.2958C87.0265 87.3332 87.621 87.209 88.0778 86.9324Z" fill="#004E80"/>
<path id="Vector_8" d="M106.411 74.0345L114.039 90.1533H109.851L108.206 86.3139H100.427L98.8323 90.1533H94.8701L102.423 74.0345H106.411ZM101.65 83.4418H106.984L104.267 77.246L101.65 83.4418Z" fill="#004E80"/>
<path id="Vector_9" d="M120.705 89.9181C119.717 89.7605 118.807 89.2863 117.976 88.4928C117.261 87.8195 116.812 87.0634 116.629 86.2258C116.446 85.3882 116.355 84.5279 116.355 83.6435V74.0345H120.12V82.8794C120.103 84.3756 120.286 85.5204 120.668 86.3139C121.05 87.1074 122.229 87.5042 124.206 87.5042L128.643 87.4815V90.1533H123.882C122.753 90.1533 121.694 90.0758 120.705 89.9181Z" fill="#004E80"/>
<path id="Vector_10" d="M136.061 89.9181C135.072 89.7605 134.162 89.2863 133.331 88.4928C132.617 87.8195 132.168 87.0634 131.985 86.2258C131.802 85.3882 131.711 84.5279 131.711 83.6435V74.0345H135.475V82.8794C135.458 84.3756 135.641 85.5204 136.023 86.3139C136.405 87.1074 137.585 87.5042 139.562 87.5042L143.998 87.4815V90.1533H139.237C138.108 90.1533 137.049 90.0758 136.061 89.9181Z" fill="#004E80"/>
</g>
</g>
</g>
<g id="Group_8">
<g id="Group_9">
<g id="Group_10">
<path id="Vector_11" d="M31.9944 101.803C31.0873 101.803 30.1789 101.802 29.2718 101.805C28.9739 101.806 28.9526 101.845 29.0795 102.117C29.3186 102.629 29.7821 102.756 30.2818 102.791C31.7566 102.89 33.2327 102.821 34.7089 102.823C34.8959 102.823 34.9293 102.872 34.928 103.038C34.9226 103.778 34.9226 104.517 34.932 105.257C34.9333 105.429 34.8865 105.468 34.7075 105.465C33.206 105.452 31.7045 105.474 30.2029 105.441C29.2251 105.42 28.2632 105.234 27.4096 104.732C26.381 104.125 25.7358 103.215 25.5006 102.043C25.2816 100.95 25.2869 99.8491 25.6088 98.779C26.0751 97.2267 27.1384 96.2796 28.7108 95.8815C29.3533 95.7185 30.0039 95.6437 30.6638 95.6424C31.9917 95.641 33.3196 95.6464 34.6488 95.6357C34.8665 95.6344 34.9333 95.6958 34.9293 95.9136C34.9173 96.6202 34.9173 97.3269 34.928 98.0336C34.932 98.2447 34.8812 98.3141 34.6541 98.3115C33.4411 98.2981 32.2281 98.3075 31.0165 98.2994C30.6932 98.2968 30.3739 98.3288 30.056 98.3596C29.6258 98.4023 29.356 98.6949 29.1249 99.0248C29.0608 99.1157 29.0928 99.1798 29.2144 99.1798C29.3132 99.1798 29.4121 99.1811 29.511 99.1811C31.2262 99.1811 32.9428 99.1851 34.6581 99.1758C34.8785 99.1744 34.936 99.2346 34.9306 99.4523C34.9159 100.142 34.9146 100.832 34.928 101.523C34.932 101.749 34.8932 101.825 34.6381 101.818C33.7564 101.797 32.8734 101.81 31.9904 101.81C31.9944 101.807 31.9944 101.806 31.9944 101.803Z" fill="#B2B2B2"/>
<path id="Vector_12" d="M104.119 99.1798C105.002 99.1798 105.885 99.1878 106.766 99.1744C106.992 99.1704 107.04 99.2399 107.036 99.4523C107.022 100.134 107.02 100.816 107.035 101.499C107.04 101.737 106.994 101.818 106.729 101.815C105.03 101.802 103.329 101.809 101.63 101.81C101.589 101.81 101.547 101.807 101.506 101.811C101.371 101.825 101.174 101.785 101.121 101.897C101.061 102.021 101.191 102.172 101.269 102.294C101.448 102.57 101.741 102.666 102.039 102.739C102.351 102.815 102.671 102.839 102.994 102.837C104.256 102.832 105.519 102.839 106.781 102.829C106.975 102.828 107.035 102.879 107.032 103.077C107.022 103.799 107.024 104.523 107.032 105.246C107.034 105.402 106.995 105.46 106.828 105.46C105.285 105.452 103.742 105.482 102.199 105.438C101.241 105.412 100.302 105.21 99.4619 104.705C98.5628 104.163 97.9684 103.385 97.6958 102.37C97.3351 101.031 97.3832 99.6914 97.8388 98.3983C98.2983 97.0945 99.2895 96.305 100.621 95.9336C101.372 95.7239 102.138 95.6397 102.915 95.641C104.202 95.6437 105.489 95.6464 106.776 95.637C106.988 95.6357 107.036 95.7011 107.034 95.9015C107.022 96.6082 107.022 97.3149 107.034 98.0216C107.038 98.238 106.991 98.3141 106.752 98.3115C105.456 98.2968 104.162 98.3008 102.866 98.3061C102.537 98.3075 102.211 98.3382 101.895 98.4504C101.623 98.5466 101.439 98.7389 101.261 98.9447C101.22 98.9928 101.176 99.0596 101.2 99.125C101.235 99.2172 101.328 99.1798 101.395 99.1811C102.303 99.1811 103.212 99.1811 104.119 99.1798Z" fill="#B2B2B2"/>
<path id="Vector_13" d="M67.6188 99.1197C67.6188 100.131 67.6214 101.141 67.6174 102.152C67.6148 102.709 67.4905 103.246 67.2434 103.742C67.0617 104.105 66.7625 104.384 66.4232 104.61C65.4413 105.266 64.3419 105.539 63.177 105.553C62.2899 105.565 61.3922 105.625 60.5279 105.348C59.9188 105.151 59.3056 104.984 58.7819 104.573C58.1634 104.086 57.8 103.483 57.7105 102.709C57.6571 102.254 57.6144 101.797 57.6144 101.336C57.6157 99.5191 57.617 97.7036 57.6104 95.8868C57.6104 95.6985 57.6518 95.6344 57.8548 95.637C58.7873 95.6477 59.7197 95.6464 60.6522 95.6357C60.8432 95.633 60.8846 95.6931 60.8833 95.8735C60.8793 97.8052 60.8833 99.7355 60.8846 101.667C60.8846 101.98 60.9928 102.262 61.1251 102.537C61.2199 102.733 61.3869 102.867 61.5913 102.915C62.2058 103.061 62.8296 103.094 63.4522 102.962C64.1281 102.817 64.2737 102.524 64.3392 101.844C64.3793 101.428 64.3459 101.006 64.3566 100.586C64.398 99.0182 64.3419 97.4498 64.3472 95.8815C64.3485 95.6905 64.39 95.6317 64.5903 95.6344C65.5054 95.6464 66.4218 95.6504 67.3382 95.6344C67.5867 95.6304 67.6335 95.7078 67.6308 95.9389C67.6174 96.9983 67.6255 98.059 67.6255 99.1197C67.6214 99.1197 67.6201 99.1197 67.6188 99.1197Z" fill="#B2B2B2"/>
<path id="Vector_14" d="M42.6978 105.448C41.947 105.448 41.1949 105.485 40.4468 105.44C39.2445 105.365 38.0729 105.154 37.1218 104.319C36.514 103.785 36.0865 103.127 35.8754 102.35C35.5548 101.161 35.5869 99.9613 35.9075 98.779C36.0985 98.075 36.4445 97.4284 36.9909 96.9368C37.3075 96.6523 37.6789 96.4145 38.0743 96.2221C38.9613 95.792 39.9071 95.6544 40.8756 95.6437C42.2289 95.629 43.5808 95.6397 44.934 95.6317C45.1291 95.6303 45.1932 95.6504 45.2039 95.8842C45.2386 96.6149 45.2039 97.3456 45.2293 98.075C45.2346 98.25 45.1785 98.3021 45.0062 98.2954C44.4304 98.2741 43.8533 98.2968 43.2762 98.2727C42.313 98.2313 41.3499 98.2487 40.3907 98.3569C39.9846 98.4023 39.7027 98.6494 39.5077 98.9981C39.1296 99.6741 39.1123 100.409 39.1657 101.152C39.1871 101.452 39.2165 101.753 39.3353 102.04C39.5611 102.586 40.03 102.739 40.5457 102.785C41.7466 102.895 42.9516 102.809 44.1552 102.829C44.4438 102.835 44.7323 102.837 45.0209 102.827C45.1865 102.82 45.2319 102.884 45.2306 103.042C45.2226 103.79 45.2239 104.537 45.2266 105.285C45.2266 105.412 45.2092 105.468 45.0503 105.465C44.2674 105.453 43.4833 105.46 42.6991 105.46C42.6978 105.457 42.6978 105.453 42.6978 105.448Z" fill="#B2B2B2"/>
<path id="Vector_15" d="M83.2377 95.6344V98.3302H79.914V105.46H76.5196V98.3302H73.2119V95.6344H83.2377Z" fill="#B2B2B2"/>
<path id="Vector_16" d="M129.065 95.6344V98.3302H125.74V105.46H122.347V98.3302H119.039V95.6344H129.065Z" fill="#B2B2B2"/>
<path id="Vector_17" d="M83.0068 105.458L84.328 95.6357H88.3878L90.1298 101.002L91.9078 95.6357L95.9756 95.6384L97.222 105.458H93.9424L93.2931 100.696L91.7181 105.458L88.6202 105.468L87.0318 100.643L86.3332 105.458H83.0068Z" fill="#B2B2B2"/>
<path id="Vector_18" d="M68.917 105.453L72.3422 105.462V95.6317H68.917V105.453Z" fill="#B2B2B2"/>
<path id="Vector_19" d="M108.4 105.458V95.6344H111.995L115.233 100.508V95.6344H118.565V105.458H115.156L111.705 100.234V105.458H108.4Z" fill="#B2B2B2"/>
<path id="Vector_20" d="M20.8464 98.3101C21.1563 98.3101 21.4061 98.5613 21.4061 98.8712C21.4061 99.1811 21.1563 99.4309 20.8464 99.4309H18.367V102.045H19.6147L21.8175 105.457H25.6422L22.9237 101.723C23.9924 101.359 24.3277 100.462 24.3277 100.462C24.3277 100.462 24.7685 99.3307 24.5975 98.2086C24.4506 97.2361 23.6584 96.496 23.6584 96.496C22.738 95.7038 21.1469 95.633 21.1469 95.633H14.6318V105.457H17.9154V98.3115H20.8464V98.3101Z" fill="#B2B2B2"/>
<path id="Vector_21" d="M52.4909 98.3101C52.8008 98.3101 53.0506 98.5613 53.0506 98.8712C53.0506 99.1811 52.8008 99.4309 52.4909 99.4309H50.0115V102.045H51.2592L53.4621 105.457H57.2867L54.5682 101.723C55.6369 101.359 55.9722 100.462 55.9722 100.462C55.9722 100.462 56.413 99.3307 56.242 98.2086C56.0951 97.2361 55.3029 96.496 55.3029 96.496C54.3825 95.7038 52.7915 95.633 52.7915 95.633H46.2764V105.457H49.56V98.3115H52.4909V98.3101Z" fill="#B2B2B2"/>
</g>
</g>
<path id="Vector_22" d="M11.6529 100.074H0V101.372H11.6529V100.074Z" fill="#B2B2B2"/>
<path id="Vector_23" d="M144 100.074H132.037V101.372H144V100.074Z" fill="#B2B2B2"/>
</g>
</g>
</svg>
