<svg width="144" height="106" viewBox="0 0 144 106" fill="none" xmlns="http://www.w3.org/2000/svg">
<g id="Logo">
<g id="Group">
<g id="Group_2">
<g id="Group_3">
<path id="Vector" d="M31.5567 55.0308C32.2918 55.8626 33.0117 56.7369 33.7085 57.5829C34.009 57.9479 34.3105 58.3139 34.614 58.6769C34.8731 58.9875 35.1292 59.299 35.3853 59.6116C35.9853 60.3437 36.6236 61.0868 37.2538 61.8189C39.2755 64.1673 41.2175 64.3316 43.0184 64.3316C43.2836 64.3316 43.5478 64.3336 43.813 64.3336C47.323 64.3336 50.9943 64.2005 54.7272 63.9374C57.0222 63.776 59.3605 63.649 61.6212 63.527C62.2695 63.4917 65.5779 63.3102 65.5779 63.3102C69.828 63.0783 74.2233 62.8383 78.54 62.4461C79.5251 62.3563 80.967 61.4347 81.3169 60.5353C81.6023 59.8022 81.8786 59.1438 81.7999 58.5337C81.5478 56.5866 81.1788 55.8939 78.9524 55.4573C78.4996 55.3686 78.0398 55.3232 77.5871 55.3232C76.363 55.3232 74.5571 56.025 73.3259 56.4676C70.7788 57.3812 68.1552 58.3321 64.8982 58.3321C63.7457 58.3321 62.4944 58.2534 60.9607 58.084C60.0855 57.9872 59.1951 57.9045 58.334 57.8239C56.9415 57.6938 55.5016 57.5597 54.099 57.3651C51.3664 56.9869 48.1387 56.4747 44.9121 55.5359C43.5498 55.1397 42.4003 54.3441 41.4958 53.1724C40.2445 51.552 39.3148 49.7501 38.4971 48.043C36.5762 44.0359 35.0052 39.7959 33.4856 35.695L33.0571 34.5394C32.5418 33.151 32.8292 31.83 33.9122 30.613C35.2724 29.0844 36.3786 28.432 37.6117 28.432C38.4305 28.432 39.3733 28.7113 40.5813 29.3112C41.391 29.7135 41.9476 29.885 42.4407 29.885C43.446 29.885 43.7253 29.9787 44.3202 28.8686C44.3464 28.8202 44.6045 28.3735 44.657 27.8653C44.7044 27.4095 44.8354 27.3107 44.908 27.1524C45.3507 26.5847 46.5859 26.2499 46.8259 24.8836C46.8955 24.4884 47.3129 24.2605 47.5559 24.1607C48.2527 23.8723 48.5653 23.3116 48.4826 22.4949C48.4664 22.3376 48.4543 22.1793 48.4412 22.022C48.4231 21.7941 48.4039 21.5582 48.3757 21.3232C48.2174 20.0104 48.2739 19.001 49.0402 18.033C49.8156 17.0519 50.1715 15.7774 50.0707 14.3466C49.9638 12.831 50.3672 11.9225 51.4178 11.3105C51.8928 11.0342 52.1519 10.0501 51.431 8.66057C50.6021 7.06337 49.2913 5.89068 48.1277 4.91663C44.9413 2.24858 41.9365 1.00632 38.6725 1.00632L38.5172 1.00732C35.4065 1.04564 32.9906 2.53999 31.3369 5.44903C29.7508 8.23909 29.0218 11.1774 29.1105 14.4292C29.1246 14.9425 29.1286 15.4668 29.1327 15.974C29.1438 17.299 29.1549 18.6683 29.3364 20.0174C29.5582 21.665 28.8947 22.8831 27.1846 23.965C25.7911 24.8463 24.3512 25.7589 22.8457 26.4788C17.1113 29.2215 12.7664 33.9052 9.56295 40.7951C7.24581 45.7793 4.69472 51.6095 3.76504 57.7281C3.46456 59.7084 3.1308 63.6722 2.74562 69.8401C1.71913 70.2737 0.783401 70.8717 0.0100098 71.5846C0.16731 66.9331 0.456701 63.4715 0.893309 61.0253C1.78266 56.0411 3.12374 51.2818 4.87925 46.8784C7.65721 39.9118 10.8728 34.6907 14.9979 30.4466C17.675 27.6918 20.7736 25.3636 24.208 23.5254C24.6668 23.2794 25.1356 22.9779 25.7275 22.5453C26.9012 21.6892 27.4054 20.57 27.3147 19.0252C27.0979 15.3478 26.8528 11.1794 28.2524 7.2358C29.6459 3.31237 33.7549 0.208725 37.8114 0.0171415C38.0494 0.00604981 38.2893 0 38.5243 0C42.5969 0 46.2582 1.66173 50.0465 5.23022C51.2111 6.32628 52.4131 7.52115 53.1965 9.00038C53.9588 10.4403 53.7138 11.4315 52.402 12.2139C51.5772 12.706 51.2363 13.3896 51.3281 14.3647C51.4501 15.6544 51.072 16.8694 50.1736 18.0784C49.7269 18.6794 49.5776 19.3227 49.7188 20.0426C49.9457 21.2032 50.0556 22.4727 50.0657 24.0387C50.0687 24.4964 49.9759 24.8231 49.7894 25.0107C49.6371 25.1639 49.4082 25.2386 49.0906 25.2386C49.0341 25.2386 48.9757 25.2365 48.9152 25.2315C48.8103 25.2234 48.7105 25.2184 48.6177 25.2184C48.1498 25.2184 47.808 25.3344 47.5721 25.5723C47.321 25.8254 47.207 26.1874 47.2131 26.7127C47.2151 26.9144 47.1062 27.2078 46.8793 27.2653C45.2579 27.6777 45.6441 28.2283 45.3638 28.9724C45.2368 29.3092 45.023 29.5835 44.9101 29.7498C44.172 30.8358 43.3915 31.338 42.3005 31.338C42.0051 31.338 41.6773 31.3007 41.3285 31.226C40.9181 31.1383 40.4996 31.0314 40.0953 30.9276C39.6002 30.8005 39.0879 30.6694 38.5727 30.5686C38.2188 30.5 37.8779 30.4648 37.5613 30.4648C36.6085 30.4648 35.8411 30.7804 35.342 31.3773C34.7642 32.068 34.5787 33.0925 34.8046 34.3398C35.2038 36.549 35.9873 38.7391 37.1993 41.0341C37.4918 41.5887 37.7832 42.1433 38.0736 42.6989C39.5538 45.5232 41.0844 48.4443 42.845 51.188C43.7364 52.5775 44.9484 53.4184 46.6575 53.8349C50.7745 54.8372 55.1638 55.4795 60.4686 55.8566C61.1291 55.903 61.9398 56.0169 62.5871 56.0351C63.5935 56.0643 64.0664 56.1409 65.0041 56.1409C65.231 56.1409 65.96 56.1823 66.199 56.1823C66.9462 56.1823 67.6732 56.0361 68.3467 55.8778C68.9467 55.7366 69.5487 55.5985 70.1496 55.4603C71.0198 55.2607 71.9203 55.054 72.8046 54.8402C73.2644 54.7293 73.6899 54.5992 73.8321 54.2251C73.9773 53.846 73.7443 53.4618 73.4489 53.0353C72.7975 52.0925 70.8081 49.1845 70.2364 48.2215C70.2122 48.1812 70.2202 48.1257 70.2595 48.0581C70.3493 47.8998 70.5782 47.7405 70.8414 47.7405C70.9926 47.7405 71.1348 47.796 71.2628 47.9039L72.0393 49.0826C72.5081 49.7653 73.0093 50.4287 73.4933 51.07C73.9521 51.6781 74.7123 52.9365 75.2468 53.4911C75.4555 53.7068 75.8427 53.843 76.4285 53.8712C78.3837 53.964 80.1251 54.4449 80.3388 54.5296C82.0409 55.2052 83.4879 57.1463 82.6852 59.54C82.6328 59.6973 82.5652 59.8536 82.4947 60.019C82.41 60.2156 82.3232 60.4183 82.2557 60.6351C82.1125 61.0909 81.9935 61.5648 82.2476 61.9106C82.4694 62.2121 82.8516 62.2514 83.1602 62.2514C83.2499 62.2514 83.3497 62.2474 83.4596 62.2403C85.4823 62.1052 87.2641 61.953 88.9066 61.7725L88.9853 61.7634C89.4521 61.712 89.8202 61.6716 90.0763 61.6716C90.5159 61.6716 90.524 61.6716 90.5331 63.1105C90.5361 63.6298 90.5351 64.5888 90.5351 64.5888C90.5351 64.5888 91.495 64.6119 91.9992 64.6119C95.8672 64.6029 99.7271 64.6009 103.587 64.6009L115.696 64.6029L130.138 64.613V66.7113H28.4974L28.6124 65.9349C28.8019 64.6583 28.9754 63.5048 29.1155 62.1002C29.1781 61.468 29.3152 60.51 29.3999 59.9575C29.657 58.2726 29.8224 57.4528 30.0735 55.6751L30.4627 53.7845L31.5567 55.0308ZM31.7896 58.2413L31.4165 59.656C31.4165 59.656 31.1907 61.4034 31.0011 62.3099C30.9366 62.6185 30.9336 62.9472 30.8751 63.2567C30.7874 63.7196 30.6311 64.6503 30.6311 64.6503C30.6311 64.6503 31.4992 64.5898 31.952 64.5918C32.7798 64.5958 33.6066 64.5968 34.4345 64.5968L37.3627 64.5948C37.5301 64.5948 38.4618 64.6109 38.4618 64.6109C38.4618 64.6109 37.76 64.0039 37.6359 63.891C36.0095 62.4067 32.928 59.2829 32.928 59.2829L31.7896 58.2413ZM88.465 64.2016C88.5003 64.2016 88.5376 64.2026 88.5749 64.2046C88.6213 64.2066 88.7665 64.2046 88.8119 64.2046C88.9994 64.2046 89.1386 64.1834 89.316 63.9969C89.4521 63.8537 89.5147 63.649 89.5016 63.3878C89.4693 62.7496 89.0256 62.7001 88.8905 62.7001C88.7756 62.7001 88.6445 62.7173 88.5467 62.7233C88.4579 62.7284 88.1615 62.7606 88.1302 62.7637C86.2578 62.9371 84.6676 63.1337 82.8284 63.3142L81.2231 63.4705C81.1284 63.4796 81.0427 63.529 80.9872 63.6066C80.9317 63.6843 80.9126 63.7811 80.9348 63.8738L80.9529 63.9515C80.9872 64.1007 81.1203 64.2056 81.2736 64.2056L84.6666 64.2066C85.9311 64.2066 87.1965 64.2056 88.461 64.2016H88.465Z" fill="white"/>
</g>
</g>
<g id="Group_4">
<g id="Group_5">
<path id="Vector_2" d="M120.213 59.9345V60.726C118.578 58.7063 117.543 56.1805 117.386 53.4247C117.372 53.1797 117.365 52.9316 117.365 52.6836C117.365 52.5757 117.366 52.4688 117.369 52.3619L117.739 52.8086L118.126 53.9883L120.089 59.9758L120.213 59.9345Z" fill="#1B0828"/>
<path id="Vector_3" d="M142.828 52.5495C142.832 52.7995 142.826 53.0456 142.815 53.2916C142.688 56.0504 141.68 58.5854 140.065 60.6222L140.056 59.8306L140.181 59.871L142.081 53.8643L142.456 52.6795L142.82 52.2278C142.825 52.3347 142.828 52.4416 142.828 52.5495Z" fill="#1B0828"/>
<path id="Vector_4" d="M127.107 56.0342L126.343 57.1766L124.445 60.011L124.143 60.4608L123.837 60.3821L120.584 59.5553L118.939 54.5408L118.389 52.862L120.974 49.6313L125.52 51.1498L127.107 56.0342Z" fill="#1B0828"/>
<path id="Vector_5" d="M141.806 52.7393L141.274 54.4253L139.682 59.4568L136.132 60.3986L133.896 57.1367L133.121 56.0033L134.485 51.6534L134.657 51.1028L135.117 50.9445L139.188 49.5359L141.806 52.7393Z" fill="#1B0828"/>
<path id="Vector_6" d="M121.15 49.0574L125.689 50.5729L129.87 47.5358V42.1967L125.964 41.2812L121.319 44.8275L121.15 49.0574Z" fill="#1B0828"/>
<path id="Vector_7" d="M139.004 48.9633L135.882 50.0432L134.482 50.5282L130.27 47.5355L130.215 42.1944L134.111 41.2405L138.793 44.7364L138.859 46.0553L139.004 48.9633Z" fill="#1B0828"/>
<path id="Vector_8" d="M125.625 40.8389L125.758 40.6604C123.505 41.4903 121.547 42.9362 120.09 44.7925L120.809 44.5788L125.625 40.8389Z" fill="#1B0828"/>
<path id="Vector_9" d="M140.02 44.6868L139.787 44.6193L139.297 44.4812L134.444 40.7927L134.308 40.6162C136.492 41.3946 138.408 42.7509 139.863 44.4993C139.919 44.5618 139.969 44.6243 140.02 44.6868Z" fill="#1B0828"/>
<path id="Vector_10" d="M135.602 60.6904L132.978 64.4041L130.158 64.4082L127.34 64.4354L124.675 60.7489L125.719 59.1911L127.022 57.2409L127.592 56.3899H130.116L132.64 56.3627L133.22 57.2077L135.602 60.6904Z" fill="#1B0828"/>
</g>
<path id="Vector_11" d="M129.992 38.691C122.336 38.7696 116.131 45.0233 116.131 52.6977C116.131 60.4216 122.415 66.7055 130.138 66.7055C137.862 66.6248 144.08 60.2754 143.999 52.5515C143.919 44.8771 137.649 38.689 129.992 38.691ZM129.839 42.2111V47.5512L125.658 50.5883L121.119 49.0718L121.288 44.8418L125.933 41.2955L129.839 42.2111ZM134.079 41.2532L138.76 44.7511L138.973 48.979L134.45 50.5429L130.238 47.5492L130.183 42.2101L134.079 41.2532ZM125.727 40.6744L125.594 40.8528L120.778 44.5938L120.059 44.8075C121.516 42.9502 123.473 41.5042 125.727 40.6744ZM139.989 44.7027L139.268 44.497L134.414 40.8075L134.279 40.631C136.539 41.4357 138.513 42.8614 139.989 44.7027ZM120.182 60.7412C118.401 58.541 117.333 55.7419 117.333 52.6977C117.333 52.5898 117.334 52.483 117.337 52.3761L117.707 52.8228L120.057 59.99L120.182 60.7412ZM140.149 59.8851L142.424 52.6937L142.79 52.243C142.794 52.3499 142.796 52.4567 142.797 52.5646C142.829 55.6088 141.79 58.419 140.032 60.6373L140.149 59.8851ZM120.552 59.5705L118.357 52.8772L120.941 49.6465L125.488 51.1651L127.075 56.0484L124.112 60.475L120.552 59.5705ZM136.1 60.4125L133.09 56.0172L134.625 51.1177L139.156 49.5507L141.775 52.7542L139.65 59.4707L136.1 60.4125ZM130.127 64.4226L127.309 64.4488L124.644 60.7624L127.561 56.4044H130.086L132.61 56.3781L135.572 60.7059L132.946 64.4196L130.127 64.4226Z" fill="white"/>
<path id="Vector_12" d="M130.077 49.4399L126.171 50.8606L130.073 48.0181L134.002 50.8203L130.083 49.4399H130.077Z" fill="#1B0828"/>
<path id="Vector_13" d="M130.041 41.9198L126.081 40.974L130.036 41.2684L133.989 40.9326L130.041 41.9198Z" fill="#1B0828"/>
<path id="Vector_14" d="M119.929 45.2776L120.865 44.9841L120.655 49.1052L118.357 52.1867L120.075 48.7976L120.383 45.4379L119.929 45.2776Z" fill="#1B0828"/>
<path id="Vector_15" d="M139.735 45.3359L140.186 45.1705L139.248 44.8872L139.501 49.0062L141.831 52.0635L140.076 48.6926" fill="#1B0828"/>
<path id="Vector_16" d="M120.585 60.9118V60.0315L124.357 60.9118L126.621 64.2655L123.966 61.2748L120.781 60.3995L120.585 60.9118Z" fill="#1B0828"/>
<path id="Vector_17" d="M139.694 60.8113L139.684 59.931L135.922 60.8506L133.694 64.2276L136.316 61.2096L139.493 60.3011L139.694 60.8113Z" fill="#1B0828"/>
<path id="Vector_18" d="M123.837 60.382C124.041 60.261 124.245 60.1359 124.445 60.0109L124.144 60.4606L123.837 60.382Z" fill="white"/>
<path id="Vector_19" d="M133.22 57.2077L135.603 60.6904L132.978 64.4041L130.159 64.4082L127.339 64.4354L124.674 60.7489L125.718 59.1911C127.026 58.3219 128.286 57.3892 129.502 56.3899H130.114L132.638 56.3627L133.22 57.2077Z" fill="#1B0828"/>
<path id="Vector_20" d="M138.973 48.9785L135.851 50.0584C136.894 48.8 137.887 47.472 138.828 46.0704L138.973 48.9785Z" fill="#1B0828"/>
<path id="Vector_21" d="M140.019 44.6859L139.787 44.6186C139.811 44.5784 139.838 44.5382 139.862 44.498C139.919 44.5613 139.968 44.6236 140.019 44.6859Z" fill="white"/>
<path id="Vector_22" d="M141.243 54.4393L139.651 59.4719L136.101 60.4127L133.865 57.1507L133.09 56.0174L134.453 51.6674C134.666 51.4345 134.878 51.1975 135.085 50.9586L139.156 49.5499L141.774 52.7534L141.243 54.4393Z" fill="#1B0828"/>
<path id="Vector_23" d="M142.797 52.5645C142.801 52.8146 142.795 53.0606 142.784 53.3067C142.657 56.0655 141.649 58.6004 140.034 60.6373L140.025 59.8457L140.15 59.8861L142.051 53.8794L142.426 52.6946L142.79 52.2429C142.795 52.3498 142.797 52.4577 142.797 52.5645Z" fill="#1B0828"/>
</g>
</g>
<g id="Group_6">
<g id="Group_7">
<g id="Group_8">
<path id="Vector_24" d="M1.63249 76.0797C2.72048 74.7326 5.10922 74.0591 8.79871 74.0591L14.5311 74.0369V76.8431H8.47403C6.89498 76.8733 5.7354 77.1798 4.99629 77.7637C4.25718 78.3475 3.84578 79.3578 3.76209 80.7947L14.5301 80.7725V83.5565H3.76411V90.1571H0V82.7489C0 79.6492 0.5445 77.4259 1.63249 76.0797Z" fill="white"/>
<path id="Vector_25" d="M17.8727 78.5266C18.3043 77.3449 18.9405 76.3829 19.7795 75.6418C20.6184 74.9007 21.7195 74.3733 23.0818 74.0587C23.5799 73.9538 24.0951 73.8722 24.6275 73.8117C25.1589 73.7522 25.6903 73.7219 26.2227 73.7219C26.7874 73.7068 27.3611 73.73 27.9429 73.7895C28.5247 73.85 29.0813 73.9468 29.6127 74.0819C30.9417 74.3814 32.0307 74.9047 32.8777 75.6529C33.7247 76.4011 34.3479 77.3671 34.7472 78.5488C34.9125 79.0873 35.0416 79.657 35.1334 80.2549C35.2241 80.8539 35.2705 81.4528 35.2705 82.0508C35.2705 82.6941 35.2292 83.3233 35.1455 83.9363C35.0618 84.5504 34.9297 85.1342 34.7472 85.6878C34.3479 86.8998 33.7167 87.8769 32.8525 88.618C31.9884 89.3592 30.8742 89.8714 29.5119 90.1557C28.9795 90.2757 28.432 90.3614 27.8673 90.4139C27.3016 90.4663 26.7289 90.4925 26.1471 90.4925C25.6318 90.4925 25.1166 90.4623 24.6023 90.4028C24.0871 90.3423 23.5799 90.2606 23.0818 90.1557C21.7356 89.8714 20.6305 89.3592 19.7664 88.618C18.9022 87.8769 18.271 86.9008 17.8717 85.6878C17.7053 85.1645 17.5763 84.5958 17.4855 83.9817C17.3938 83.3687 17.3484 82.7465 17.3484 82.1183C17.3484 81.4901 17.3897 80.865 17.4734 80.2438C17.5571 79.6227 17.6892 79.058 17.8727 78.5488V78.5266ZM21.7609 79.6711C21.6439 80.0754 21.5612 80.4828 21.5118 80.8942C21.4624 81.3056 21.4372 81.714 21.4372 82.1173C21.4372 82.5368 21.4664 82.9522 21.5249 83.3636C21.5824 83.775 21.662 84.1753 21.7619 84.5645C21.9444 85.2532 22.2479 85.8522 22.6714 86.3604C23.0949 86.8696 23.6888 87.2437 24.4541 87.4827C24.7364 87.5724 25.0359 87.64 25.3515 87.6843C25.6671 87.7297 25.9827 87.7519 26.2994 87.7519C26.615 87.7519 26.9306 87.7297 27.2472 87.6843C27.5628 87.6389 27.8613 87.5724 28.1446 87.4827C28.9089 87.2437 29.5069 86.8696 29.9394 86.3604C30.371 85.8522 30.6705 85.2532 30.8369 84.5645C30.9367 84.1753 31.0153 83.775 31.0738 83.3636C31.1313 82.9522 31.1605 82.5368 31.1605 82.1173C31.1605 81.713 31.1313 81.3056 31.0738 80.8942C31.0153 80.4828 30.9367 80.0825 30.8369 79.6933C30.6705 79.0046 30.372 78.4026 29.9394 77.8863C29.5069 77.3701 28.9089 77 28.1446 76.7752C27.8623 76.6854 27.5628 76.6179 27.2472 76.5735C26.9306 76.5281 26.615 76.5059 26.2994 76.5059C25.9838 76.5059 25.6681 76.5281 25.3515 76.5735C25.0359 76.6189 24.7364 76.6854 24.4541 76.7752C23.6898 77.0151 23.0999 77.3892 22.6845 77.8974C22.2691 78.4066 21.9615 79.0056 21.7619 79.6933V79.6711H21.7609Z" fill="white"/>
<path id="Vector_26" d="M38.6364 78.5266C39.068 77.3449 39.7043 76.3829 40.5432 75.6418C41.3821 74.9007 42.4832 74.3733 43.8465 74.0587C44.3446 73.9538 44.8599 73.8722 45.3923 73.8117C45.9236 73.7522 46.455 73.7219 46.9874 73.7219C47.5521 73.7068 48.1258 73.73 48.7077 73.7895C49.2895 73.85 49.8461 73.9468 50.3775 74.0819C51.7064 74.3814 52.7954 74.9047 53.6424 75.6529C54.4894 76.4011 55.1126 77.3671 55.5119 78.5488C55.6783 79.0873 55.8063 79.657 55.8981 80.2549C55.9888 80.8539 56.0352 81.4528 56.0352 82.0508C56.0352 82.6941 55.9939 83.3233 55.9102 83.9363C55.8265 84.5504 55.6944 85.1342 55.5109 85.6878C55.1126 86.8998 54.4804 87.8769 53.6162 88.618C52.7521 89.3592 51.6389 89.8714 50.2756 90.1557C49.7432 90.2757 49.1957 90.3614 48.631 90.4139C48.0664 90.4663 47.4926 90.4925 46.9108 90.4925C46.3955 90.4925 45.8803 90.4623 45.365 90.4028C44.8498 90.3423 44.3436 90.2606 43.8445 90.1557C42.4983 89.8714 41.3932 89.3592 40.5291 88.618C39.6649 87.8769 39.0337 86.9008 38.6344 85.6878C38.468 85.1645 38.339 84.5958 38.2482 83.9817C38.1565 83.3687 38.1111 82.7465 38.1111 82.1183C38.1111 81.4901 38.1524 80.865 38.2361 80.2438C38.3188 79.6227 38.4519 79.058 38.6344 78.5488V78.5266H38.6364ZM42.5246 79.6711C42.4086 80.0754 42.3249 80.4828 42.2755 80.8942C42.2261 81.3056 42.2009 81.714 42.2009 82.1173C42.2009 82.5368 42.2301 82.9522 42.2886 83.3636C42.3471 83.775 42.4257 84.1753 42.5256 84.5645C42.7081 85.2532 43.0116 85.8522 43.4351 86.3604C43.8596 86.8696 44.4535 87.2437 45.2178 87.4827C45.5001 87.5724 45.7996 87.64 46.1152 87.6843C46.4308 87.7297 46.7464 87.7519 47.0631 87.7519C47.3787 87.7519 47.6943 87.7297 48.0099 87.6843C48.3255 87.6389 48.624 87.5724 48.9073 87.4827C49.6716 87.2437 50.2696 86.8696 50.7021 86.3604C51.1337 85.8522 51.4332 85.2532 51.5996 84.5645C51.6994 84.1753 51.778 83.775 51.8365 83.3636C51.895 82.9522 51.9242 82.5368 51.9242 82.1173C51.9242 81.713 51.895 81.3056 51.8365 80.8942C51.778 80.4828 51.6994 80.0825 51.5996 79.6933C51.4332 79.0046 51.1337 78.4026 50.7021 77.8863C50.2706 77.3701 49.6716 77 48.9073 76.7752C48.624 76.6854 48.3255 76.6179 48.0099 76.5735C47.6943 76.5281 47.3787 76.5059 47.0631 76.5059C46.7464 76.5059 46.4308 76.5281 46.1152 76.5735C45.7996 76.6189 45.5001 76.6854 45.2178 76.7752C44.4535 77.0151 43.8636 77.3892 43.4482 77.8974C43.0328 78.4066 42.7252 79.0056 42.5256 79.6933V79.6711H42.5246Z" fill="white"/>
<path id="Vector_27" d="M58.2029 76.8646V74.0585H73.6576V76.8646H67.8496V90.1555H63.9615V76.8646H58.2029Z" fill="white"/>
<path id="Vector_28" d="M76.9731 90.1561V74.0369H86.1712C86.3204 74.052 86.4706 74.0591 86.6199 74.0591C86.7691 74.0591 86.9193 74.0671 87.0686 74.0812C88.2987 74.1256 89.4492 74.3353 90.5211 74.7094C91.593 75.0835 92.2948 75.9073 92.6275 77.1788C92.9098 78.3314 92.8312 79.3004 92.3905 80.0859C91.9499 80.8714 91.1896 81.5489 90.1097 82.1176C91.3056 82.6269 92.1032 83.2853 92.5025 84.093C92.9008 84.9017 92.9593 85.9039 92.6769 87.1008C92.3774 88.328 91.6998 89.1397 90.6451 89.537C89.5894 89.9342 88.4641 90.1399 87.2672 90.1541C87.1835 90.1541 87.1049 90.1541 87.0303 90.1541C86.9556 90.1541 86.884 90.1541 86.8185 90.1541H76.9731V90.1561ZM80.7372 80.6596H86.2458C86.9607 80.6747 87.5505 80.5517 88.0154 80.2895C88.4802 80.0284 88.7132 79.5373 88.7132 78.8194C88.7293 78.1166 88.4974 77.6296 88.0154 77.3603C87.5334 77.0911 86.9435 76.956 86.2458 76.956L80.7372 76.9338V80.6596ZM88.0779 86.9345C88.5347 86.6582 88.7636 86.1601 88.7636 85.4411C88.7636 84.7081 88.5347 84.2059 88.0779 83.9367C87.6201 83.6675 87.0262 83.5323 86.2952 83.5323L80.7372 83.5102V87.3045H86.2952C87.0262 87.3348 87.6201 87.2107 88.0779 86.9345Z" fill="white"/>
<path id="Vector_29" d="M106.411 74.0369L114.038 90.1561H109.851L108.206 86.3174H100.429L98.8336 90.1561H94.8708L102.423 74.0369H106.411ZM101.65 83.4426H106.984L104.266 77.2464L101.65 83.4426Z" fill="white"/>
<path id="Vector_30" d="M120.707 89.9201C119.717 89.7628 118.808 89.2879 117.977 88.4943C117.262 87.8208 116.813 87.0655 116.631 86.2266C116.447 85.3887 116.357 84.5286 116.357 83.6453V74.0369H120.121V82.882C120.104 84.3783 120.286 85.5238 120.669 86.3163C121.051 87.1099 122.231 87.5062 124.209 87.5062L128.645 87.484V90.1561H123.884C122.755 90.1561 121.695 90.0774 120.707 89.9201Z" fill="white"/>
<path id="Vector_31" d="M136.061 89.9201C135.072 89.7628 134.163 89.2879 133.332 88.4943C132.617 87.8208 132.168 87.0655 131.986 86.2266C131.802 85.3887 131.711 84.5286 131.711 83.6453V74.0369H135.476V82.882C135.458 84.3783 135.641 85.5238 136.024 86.3163C136.406 87.1099 137.586 87.5062 139.563 87.5062L144 87.484V90.1561H139.239C138.109 90.1561 137.05 90.0774 136.061 89.9201Z" fill="white"/>
</g>
</g>
</g>
<g id="Group_9">
<g id="Group_10">
<g id="Group_11">
<path id="Vector_32" d="M31.9944 101.807C31.0869 101.807 30.1794 101.806 29.2719 101.808C28.9745 101.809 28.9523 101.848 29.0794 102.12C29.3183 102.632 29.7822 102.76 30.2823 102.793C31.7565 102.892 33.2337 102.823 34.7089 102.825C34.8964 102.825 34.9297 102.875 34.9287 103.04C34.9236 103.779 34.9236 104.519 34.9317 105.258C34.9337 105.431 34.8863 105.469 34.7079 105.467C33.2065 105.453 31.705 105.476 30.2036 105.443C29.2256 105.422 28.2636 105.236 27.4106 104.733C26.3821 104.127 25.7367 103.217 25.5018 102.044C25.283 100.951 25.288 99.8507 25.6097 98.7808C26.0755 97.229 27.1393 96.2812 28.7123 95.8829C29.3546 95.7195 30.005 95.6449 30.6655 95.6439C31.9934 95.6419 33.3214 95.6469 34.6504 95.6378C34.8682 95.6358 34.9347 95.6983 34.9307 95.9161C34.9176 96.623 34.9186 97.3298 34.9297 98.0357C34.9327 98.2464 34.8833 98.317 34.6564 98.314C33.4434 98.3009 32.2314 98.3099 31.0184 98.3029C30.6957 98.3009 30.3761 98.3321 30.0574 98.3634C29.6269 98.4057 29.3576 98.6981 29.1257 99.0279C29.0612 99.1196 29.0935 99.1831 29.2155 99.1821C29.3143 99.1811 29.4131 99.1831 29.5129 99.1831C31.2291 99.1831 32.9443 99.1872 34.6605 99.1781C34.8813 99.1771 34.9378 99.2376 34.9327 99.4544C34.9176 100.144 34.9166 100.835 34.9297 101.524C34.9337 101.75 34.8954 101.827 34.6393 101.82C33.757 101.799 32.8737 101.812 31.9914 101.812C31.9944 101.81 31.9944 101.808 31.9944 101.807Z" fill="white"/>
<path id="Vector_33" d="M104.12 99.1806C105.003 99.1806 105.885 99.1887 106.769 99.1746C106.994 99.1706 107.043 99.2401 107.039 99.4529C107.025 100.135 107.023 100.817 107.037 101.499C107.042 101.737 106.994 101.817 106.731 101.815C105.032 101.801 103.332 101.809 101.632 101.809C101.591 101.809 101.549 101.806 101.508 101.81C101.373 101.824 101.176 101.784 101.123 101.896C101.063 102.021 101.192 102.17 101.271 102.293C101.451 102.571 101.742 102.665 102.04 102.738C102.354 102.814 102.673 102.839 102.995 102.837C104.258 102.832 105.52 102.838 106.783 102.829C106.976 102.828 107.037 102.878 107.034 103.076C107.023 103.799 107.026 104.522 107.034 105.246C107.036 105.402 106.996 105.461 106.829 105.46C105.286 105.451 103.743 105.483 102.201 105.438C101.243 105.411 100.303 105.21 99.4642 104.704C98.5647 104.163 97.9708 103.384 97.6976 102.369C97.3376 101.03 97.385 99.6898 97.8397 98.3972C98.2995 97.0924 99.2907 96.3039 100.623 95.9328C101.374 95.7231 102.138 95.6384 102.917 95.6404C104.203 95.6434 105.491 95.6454 106.778 95.6364C106.989 95.6343 107.039 95.6999 107.035 95.9015C107.023 96.6084 107.023 97.3152 107.034 98.0221C107.038 98.2389 106.991 98.3145 106.751 98.3125C105.457 98.2983 104.161 98.3024 102.865 98.3064C102.537 98.3074 102.211 98.3387 101.893 98.4506C101.622 98.5464 101.438 98.74 101.26 98.9447C101.219 98.9931 101.175 99.0596 101.198 99.1252C101.233 99.2179 101.327 99.1806 101.394 99.1806C102.302 99.1827 103.209 99.1827 104.117 99.1827C104.12 99.1816 104.12 99.1817 104.12 99.1806Z" fill="white"/>
<path id="Vector_34" d="M67.6188 99.1212C67.6188 100.132 67.6218 101.143 67.6178 102.153C67.6158 102.711 67.4907 103.247 67.2437 103.743C67.0622 104.106 66.7627 104.386 66.4239 104.613C65.4428 105.269 64.3427 105.54 63.1771 105.555C62.2898 105.567 61.3934 105.628 60.5282 105.35C59.9192 105.154 59.3061 104.987 58.7818 104.574C58.1627 104.087 57.8007 103.484 57.7099 102.71C57.6565 102.254 57.6141 101.797 57.6141 101.337C57.6151 99.5205 57.6172 97.7045 57.6111 95.8875C57.6101 95.6989 57.6514 95.6344 57.8551 95.6374C58.7868 95.6485 59.7195 95.6465 60.6522 95.6354C60.8428 95.6334 60.8842 95.6929 60.8842 95.8724C60.8801 97.8033 60.8852 99.7353 60.8862 101.666C60.8862 101.979 60.9951 102.261 61.1261 102.536C61.2209 102.733 61.3883 102.866 61.592 102.915C62.2071 103.061 62.8302 103.094 63.4524 102.962C64.128 102.818 64.2742 102.523 64.3397 101.843C64.38 101.427 64.3458 101.005 64.3568 100.586C64.3982 99.0184 64.3417 97.4494 64.3478 95.8814C64.3488 95.6898 64.3901 95.6314 64.5918 95.6344C65.5074 95.6465 66.4239 95.6505 67.3395 95.6354C67.5875 95.6314 67.6349 95.709 67.6319 95.9399C67.6188 96.9997 67.6259 98.0604 67.6259 99.1202C67.6218 99.1212 67.6198 99.1212 67.6188 99.1212Z" fill="white"/>
<path id="Vector_35" d="M42.6979 105.45C41.9477 105.45 41.1945 105.488 40.4463 105.441C39.2434 105.367 38.0717 105.156 37.1219 104.321C36.5138 103.787 36.0863 103.13 35.8766 102.353C35.5559 101.163 35.5882 99.9641 35.9088 98.7813C36.0994 98.0765 36.4453 97.4302 36.9918 96.9401C37.3084 96.6558 37.6805 96.4178 38.0747 96.2262C38.9611 95.7957 39.9079 95.6585 40.8759 95.6484C42.2281 95.6333 43.5812 95.6454 44.9344 95.6363C45.129 95.6353 45.1936 95.6545 45.2047 95.8884C45.2389 96.6195 45.2047 97.3495 45.2299 98.0795C45.2359 98.254 45.1795 98.3064 45.007 98.3004C44.4303 98.2782 43.8535 98.3024 43.2767 98.2782C42.3138 98.2378 41.3498 98.254 40.3909 98.3619C39.9845 98.4083 39.7032 98.6543 39.5076 99.0032C39.1295 99.6788 39.1123 100.414 39.1658 101.156C39.1869 101.456 39.2172 101.757 39.3352 102.044C39.56 102.591 40.0289 102.743 40.5452 102.79C41.7461 102.9 42.951 102.815 44.154 102.835C44.4424 102.84 44.7318 102.843 45.0201 102.832C45.1855 102.826 45.2319 102.889 45.2299 103.047C45.2228 103.794 45.2238 104.542 45.2248 105.289C45.2248 105.415 45.2077 105.473 45.0484 105.47C44.2649 105.458 43.4814 105.465 42.6979 105.465C42.6979 105.459 42.6979 105.454 42.6979 105.45Z" fill="white"/>
<path id="Vector_36" d="M83.2377 95.6363V98.3316H79.9143V105.46H76.5202V98.3316H73.2129V95.6363H83.2377Z" fill="white"/>
<path id="Vector_37" d="M129.065 95.6363V98.3316H125.741V105.46H122.347V98.3316H119.039V95.6363H129.065Z" fill="white"/>
<path id="Vector_38" d="M83.0059 105.461L84.3278 95.6378H88.3873L90.1297 101.004L91.9074 95.6378L95.975 95.6398L97.2213 105.461H93.9422L93.2929 100.698L91.7179 105.461L88.6203 105.47L87.0311 100.644L86.3334 105.461H83.0059Z" fill="white"/>
<path id="Vector_39" d="M68.9175 105.454L72.3418 105.464V95.6333H68.9175V105.454Z" fill="white"/>
<path id="Vector_40" d="M108.401 105.459V95.6363H111.997L115.234 100.51V95.6363H118.566V105.459H115.157L111.706 100.235V105.459H108.401Z" fill="white"/>
<path id="Vector_41" d="M20.8474 98.313C21.1569 98.313 21.407 98.564 21.407 98.8736C21.407 99.1832 21.1569 99.4332 20.8474 99.4332H18.3679V102.047H19.6152L21.8184 105.458H25.643L22.9256 101.724C23.9944 101.359 24.3302 100.464 24.3302 100.464C24.3302 100.464 24.7708 99.3314 24.6004 98.2101C24.4532 97.2371 23.6606 96.498 23.6606 96.498C22.741 95.7054 21.1489 95.6348 21.1489 95.6348H14.634V105.459H17.9182V98.313H20.8474Z" fill="white"/>
<path id="Vector_42" d="M52.4907 98.3129C52.8002 98.3129 53.0503 98.564 53.0503 98.8736C53.0503 99.1831 52.8002 99.4332 52.4907 99.4332H50.0112V102.047H51.2585L53.4617 105.458H57.2863L54.5689 101.724C55.6377 101.359 55.9735 100.464 55.9735 100.464C55.9735 100.464 56.4141 99.3313 56.2437 98.2101C56.0965 97.237 55.3039 96.4979 55.3039 96.4979C54.3843 95.7054 52.7922 95.6348 52.7922 95.6348H46.2773V105.459H49.5615V98.3129H52.4907Z" fill="white"/>
</g>
</g>
<path id="Vector_43" d="M11.6533 100.075H0V101.374H11.6533V100.075Z" fill="white"/>
<path id="Vector_44" d="M144 100.075H132.037V101.374H144V100.075Z" fill="white"/>
</g>
</g>
</svg>
